<?xml version="1.0" standalone="no"?>
<!DOCTYPE svg PUBLIC "-//W3C//DTD SVG 20010904//EN"
 "http://www.w3.org/TR/2001/REC-SVG-20010904/DTD/svg10.dtd">
<svg version="1.0" xmlns="http://www.w3.org/2000/svg"
 width="512.000000pt" height="512.000000pt" viewBox="0 0 512.000000 512.000000"
 preserveAspectRatio="xMidYMid meet">
<metadata>
Created by potrace 1.16, written by Peter Selinger 2001-2019
</metadata>
<g transform="translate(0.000000,512.000000) scale(0.100000,-0.100000)"
fill="#000000" stroke="none">
<path d="M2472 5040 c-206 -37 -423 -174 -531 -335 -128 -190 -164 -483 -87
-705 27 -78 81 -180 128 -245 85 -117 148 -209 148 -214 0 -4 -48 -43 -107
-88 -165 -124 -306 -279 -370 -408 -21 -43 -66 -170 -78 -220 -30 -129 -23
-343 16 -485 37 -134 126 -300 218 -404 73 -83 243 -243 305 -286 12 -8 35
-27 51 -42 17 -15 33 -28 36 -28 5 0 74 -52 149 -113 8 -7 35 -28 60 -47 104
-80 334 -299 410 -390 187 -223 198 -469 29 -653 -99 -109 -278 -186 -399
-174 -93 10 -144 34 -209 96 -55 53 -60 61 -66 115 -6 49 -4 65 16 109 21 43
24 66 24 156 0 95 -3 112 -27 161 -52 106 -102 140 -203 140 -128 0 -210 -90
-222 -245 -20 -265 167 -525 446 -620 139 -47 355 -51 501 -9 83 24 228 97
292 148 124 99 226 263 262 423 32 142 15 335 -43 503 -40 116 -81 198 -158
313 l-66 98 20 22 c10 12 50 56 87 97 104 114 226 282 295 406 106 191 145
322 145 489 -1 178 -53 307 -203 501 -40 51 -187 191 -271 257 -53 42 -298
231 -345 267 -99 74 -149 116 -238 198 -209 194 -298 339 -325 533 -14 96 -13
112 2 182 45 202 162 324 350 364 119 25 232 3 291 -55 49 -50 60 -97 46 -202
-7 -47 -19 -110 -28 -140 -48 -164 13 -356 132 -422 126 -69 264 -5 327 151
31 76 33 286 4 371 -63 187 -211 328 -423 402 -76 26 -105 31 -213 34 -69 1
-149 -1 -178 -6z m-150 -1692 c38 -40 122 -129 186 -197 65 -68 125 -133 135
-143 149 -156 366 -439 429 -558 38 -73 43 -92 46 -160 5 -91 -12 -159 -65
-264 -44 -88 -121 -200 -167 -245 l-35 -34 -28 28 c-15 15 -61 55 -102 89
-189 156 -447 407 -556 540 -126 156 -198 286 -222 402 -16 75 -16 86 0 168
19 93 52 169 111 251 41 56 175 195 189 195 5 0 41 -33 79 -72z"/>
</g>
</svg>
